<svg xmlns="http://www.w3.org/2000/svg" width="168" height="39" fill="none"><path fill="#46BA71" fill-rule="evenodd" d="M51 5v33.75L28.5 21.875 6 5h45Z" clip-rule="evenodd"/><path fill="#2E4FD7" fill-rule="evenodd" d="M0 33.75V0l22.5 16.875L45 33.75H0Z" clip-rule="evenodd"/><path fill="#1A1A1A" d="M75.672 8.2h-15v2.208c.912-.528 2.016-1.104 4.032-1.104h1.392v11.904c0 1.248-.192 2.256-.672 3.792h5.496c-.504-1.584-.696-2.592-.696-3.792V9.304h1.416c2.016 0 3.12.576 4.032 1.104V8.2Zm14.512 4.44c.528 1.176.12 2.496-.264 3.672l-1.416 4.128-1.776-4.728c-.384-1.008-.552-2.16-.072-3.072h-5.208l1.56 3.696-1.392 4.104-1.776-4.728c-.384-1.056-.576-2.16-.096-3.072H74.56L79.72 25h1.032l2.856-7.224L86.632 25h1.008l4.872-12.36h-2.328Zm15.007 5.616c0-3.168-1.896-5.952-5.832-5.952-3.96 0-6.408 2.808-6.408 6.504 0 3.672 2.472 6.504 6.768 6.504 2.688 0 4.584-1.056 5.424-2.448l-2.184-1.776c-.792 1.896-1.608 3.096-3.072 3.096-1.92 0-2.832-2.064-2.832-5.376h8.136v-.552Zm-8.112-.552c.144-2.904.888-4.296 2.28-4.296 1.536 0 2.256 1.752 2.256 4.296h-4.536Zm16.004-5.4c-2.376 0-4.752.912-5.736 3.312l2.856.888c.432-2.064 1.056-3.096 2.472-3.096 1.368 0 2.184.864 2.184 2.688v1.464l-2.256.408c-3.024.552-5.544 1.632-5.544 4.104 0 2.04 1.776 3.24 3.888 3.24 2.088 0 3.6-1.176 4.344-3.144L116.923 25h1.92v-7.824c0-3.528-2.88-4.872-5.76-4.872Zm-.672 11.568c-.864 0-1.56-.72-1.56-1.92 0-1.512 1.128-2.808 2.784-3.288l1.224-.36v.648c0 3.288-1.104 4.92-2.448 4.92Zm13.3-2.448V7.24h-4.68c.408 1.2.696 2.232.696 3.576v10.608c0 1.104-.168 2.064-.696 3.576h5.376c-.408-1.2-.696-2.232-.696-3.576Zm3.432-4.296 4.296-4.512h-2.544c.096.528.048 1.224-.84 2.136l-4.032 4.104 3 3.768c.792 1.032.744 1.728.528 2.376h5.568l-5.976-7.872Zm12.837-7.44c1.128 0 1.992.24 2.808.552l.816-2.64c-.72-.36-1.848-.672-3.144-.672-3.36 0-5.064 2.256-5.064 5.04v.648h-1.872v1.104h1.872v7.704c0 1.104-.192 2.064-.696 3.576h5.376c-.408-1.2-.696-2.232-.696-3.576V13.72h2.88v-1.104h-3.624c-1.512 0-1.848-.696-1.848-1.224 0-1.08 1.536-1.704 3.192-1.704Zm11.889 2.928c.384 1.2.696 2.232.696 3.576v3.96c0 1.608-.696 3.72-2.352 3.72-1.08 0-1.92-.936-1.92-2.856v-8.4h-4.68c.384 1.2.696 2.232.696 3.576v4.56c0 3.024 1.824 4.56 4.296 4.56 2.4 0 3.792-1.416 4.32-3.264L156.653 25h1.896V12.616h-4.68Zm7.983-1.8v10.608c0 1.104-.168 2.064-.696 3.576h5.376c-.408-1.2-.696-2.232-.696-3.576V7.24h-4.68c.408 1.2.696 2.232.696 3.576Z"/></svg>